<svg xmlns="http://www.w3.org/2000/svg" xmlns:xlink="http://www.w3.org/1999/xlink" width="300" zoomAndPan="magnify" viewBox="0 0 224.87999 225" height="300" preserveAspectRatio="xMidYMid meet" version="1.0"><defs><clipPath id="64cfdf794a"><path d="M 0 0.0585938 L 224.761719 0.0585938 L 224.761719 224.9375 L 0 224.9375 Z M 0 0.0585938 " clip-rule="nonzero"/></clipPath></defs><g clip-path="url(#64cfdf794a)"><path fill="#000000" d="M 112.441406 0.0585938 C 50.339844 0.0585938 0 50.398438 0 112.5 C 0 174.601562 50.339844 224.941406 112.441406 224.941406 C 174.539062 224.941406 224.878906 174.601562 224.878906 112.5 C 224.878906 50.398438 174.539062 0.0585938 112.441406 0.0585938 Z M 157.414062 123.742188 L 94.605469 123.742188 L 112.441406 141.578125 C 116.824219 145.960938 116.824219 153.089844 112.441406 157.476562 C 108.054688 161.859375 100.925781 161.859375 96.539062 157.476562 L 59.515625 120.449219 C 55.117188 116.054688 55.117188 108.9375 59.515625 104.550781 L 96.539062 67.523438 C 100.925781 63.140625 108.054688 63.140625 112.441406 67.523438 C 116.824219 71.910156 116.824219 79.039062 112.441406 83.421875 L 94.605469 101.257812 L 157.414062 101.257812 C 163.621094 101.257812 168.660156 106.292969 168.660156 112.5 C 168.660156 118.707031 163.621094 123.742188 157.414062 123.742188 Z M 157.414062 123.742188 " fill-opacity="1" fill-rule="nonzero"/><path fill="#ffffff" d="M 112.441406 0.0585938 C 50.339844 0.0585938 0 50.398438 0 112.5 C 0 174.601562 50.339844 224.941406 112.441406 224.941406 C 174.539062 224.941406 224.878906 174.601562 224.878906 112.5 C 224.878906 50.398438 174.539062 0.0585938 112.441406 0.0585938 Z M 157.414062 123.742188 L 94.605469 123.742188 L 112.441406 141.578125 C 116.824219 145.960938 116.824219 153.089844 112.441406 157.476562 C 108.054688 161.859375 100.925781 161.859375 96.539062 157.476562 L 59.515625 120.449219 C 55.117188 116.054688 55.117188 108.9375 59.515625 104.550781 L 96.539062 67.523438 C 100.925781 63.140625 108.054688 63.140625 112.441406 67.523438 C 116.824219 71.910156 116.824219 79.039062 112.441406 83.421875 L 94.605469 101.257812 L 157.414062 101.257812 C 163.621094 101.257812 168.660156 106.292969 168.660156 112.5 C 168.660156 118.707031 163.621094 123.742188 157.414062 123.742188 Z M 157.414062 123.742188 " fill-opacity="1" fill-rule="nonzero"/></g></svg>