<svg xmlns="http://www.w3.org/2000/svg" xmlns:xlink="http://www.w3.org/1999/xlink" width="200" zoomAndPan="magnify" viewBox="0 0 150 149.999998" height="200" preserveAspectRatio="xMidYMid meet" version="1.0"><defs><clipPath id="6fd1cf3a7b"><path d="M 38.0625 0 L 115 0 L 115 150 L 38.0625 150 Z M 38.0625 0 " clip-rule="nonzero"/></clipPath><clipPath id="9a2de8bced"><path d="M 38.0625 0 L 115 0 L 115 150 L 38.0625 150 Z M 38.0625 0 " clip-rule="nonzero"/></clipPath></defs><path fill="#ff3131" d="M 103.425781 140.207031 L 49.585938 140.207031 C 47.746094 140.207031 46.25 138.429688 46.25 136.234375 L 46.25 123.957031 C 46.25 121.761719 47.746094 119.984375 49.585938 119.984375 L 103.425781 119.984375 C 105.269531 119.984375 106.761719 121.761719 106.761719 123.957031 L 106.761719 136.234375 C 106.761719 138.429688 105.269531 140.207031 103.425781 140.207031 Z M 103.425781 140.207031 " fill-opacity="1" fill-rule="nonzero"/><g clip-path="url(#6fd1cf3a7b)"><path fill="#ff3131" d="M 99.261719 10.804688 L 91.851562 10.804688 C 91.894531 10.589844 91.917969 10.367188 91.917969 10.140625 L 91.917969 3.382812 C 91.917969 1.539062 90.425781 0.046875 88.582031 0.046875 L 64.429688 0.046875 C 62.589844 0.046875 61.09375 1.539062 61.09375 3.382812 L 61.09375 10.140625 C 61.09375 10.367188 61.117188 10.589844 61.160156 10.804688 L 53.75 10.804688 C 45.144531 10.804688 38.144531 17.265625 38.144531 25.207031 L 38.144531 135.675781 C 38.144531 143.617188 45.144531 150.078125 53.75 150.078125 L 99.261719 150.078125 C 107.867188 150.078125 114.871094 143.617188 114.871094 135.675781 L 114.871094 25.207031 C 114.871094 17.265625 107.867188 10.804688 99.261719 10.804688 Z M 111.535156 135.675781 C 111.535156 141.777344 106.027344 146.742188 99.261719 146.742188 L 53.75 146.742188 C 46.984375 146.742188 41.480469 141.777344 41.480469 135.675781 L 41.480469 25.207031 C 41.480469 19.105469 46.984375 14.140625 53.75 14.140625 L 99.261719 14.140625 C 106.027344 14.140625 111.535156 19.105469 111.535156 25.207031 Z M 111.535156 135.675781 " fill-opacity="1" fill-rule="nonzero"/></g><path fill="#ff3131" d="M 103.425781 140.207031 L 49.585938 140.207031 C 47.746094 140.207031 46.25 138.429688 46.25 136.234375 L 46.25 123.957031 C 46.25 121.761719 47.746094 119.984375 49.585938 119.984375 L 103.425781 119.984375 C 105.269531 119.984375 106.761719 121.761719 106.761719 123.957031 L 106.761719 136.234375 C 106.761719 138.429688 105.269531 140.207031 103.425781 140.207031 Z M 103.425781 140.207031 " fill-opacity="1" fill-rule="nonzero"/><g clip-path="url(#9a2de8bced)"><path fill="#ff3131" d="M 99.261719 10.804688 L 91.851562 10.804688 C 91.894531 10.589844 91.917969 10.367188 91.917969 10.140625 L 91.917969 3.382812 C 91.917969 1.539062 90.425781 0.046875 88.582031 0.046875 L 64.429688 0.046875 C 62.589844 0.046875 61.09375 1.539062 61.09375 3.382812 L 61.09375 10.140625 C 61.09375 10.367188 61.117188 10.589844 61.160156 10.804688 L 53.75 10.804688 C 45.144531 10.804688 38.144531 17.265625 38.144531 25.207031 L 38.144531 135.675781 C 38.144531 143.617188 45.144531 150.078125 53.75 150.078125 L 99.261719 150.078125 C 107.867188 150.078125 114.871094 143.617188 114.871094 135.675781 L 114.871094 25.207031 C 114.871094 17.265625 107.867188 10.804688 99.261719 10.804688 Z M 111.535156 135.675781 C 111.535156 141.777344 106.027344 146.742188 99.261719 146.742188 L 53.75 146.742188 C 46.984375 146.742188 41.480469 141.777344 41.480469 135.675781 L 41.480469 25.207031 C 41.480469 19.105469 46.984375 14.140625 53.75 14.140625 L 99.261719 14.140625 C 106.027344 14.140625 111.535156 19.105469 111.535156 25.207031 Z M 111.535156 135.675781 " fill-opacity="1" fill-rule="nonzero"/></g></svg>