<svg xmlns="http://www.w3.org/2000/svg" xmlns:xlink="http://www.w3.org/1999/xlink" width="200" zoomAndPan="magnify" viewBox="0 0 150 149.999998" height="200" preserveAspectRatio="xMidYMid meet" version="1.0"><defs><clipPath id="51f0c2d9fa"><path d="M 37 0 L 114.605469 0 L 114.605469 150 L 37 150 Z M 37 0 " clip-rule="nonzero"/></clipPath><clipPath id="76c626f969"><path d="M 37 0 L 114.605469 0 L 114.605469 150 L 37 150 Z M 37 0 " clip-rule="nonzero"/></clipPath></defs><path fill="#4bd5ff" d="M 103.261719 140.207031 L 49.421875 140.207031 C 47.582031 140.207031 46.085938 138.429688 46.085938 136.234375 L 46.085938 123.957031 C 46.085938 121.761719 47.582031 119.984375 49.421875 119.984375 L 103.261719 119.984375 C 105.101562 119.984375 106.597656 121.761719 106.597656 123.957031 L 106.597656 136.234375 C 106.597656 138.429688 105.101562 140.207031 103.261719 140.207031 Z M 103.261719 140.207031 " fill-opacity="1" fill-rule="nonzero"/><path fill="#4bd5ff" d="M 103.261719 115.382812 L 49.421875 115.382812 C 47.582031 115.382812 46.085938 113.601562 46.085938 111.40625 L 46.085938 99.128906 C 46.085938 96.9375 47.582031 95.15625 49.421875 95.15625 L 103.261719 95.15625 C 105.101562 95.15625 106.597656 96.9375 106.597656 99.128906 L 106.597656 111.40625 C 106.597656 113.601562 105.101562 115.382812 103.261719 115.382812 Z M 103.261719 115.382812 " fill-opacity="1" fill-rule="nonzero"/><path fill="#4bd5ff" d="M 103.261719 90.554688 L 49.421875 90.554688 C 47.582031 90.554688 46.085938 88.777344 46.085938 86.582031 L 46.085938 74.304688 C 46.085938 72.109375 47.582031 70.328125 49.421875 70.328125 L 103.261719 70.328125 C 105.101562 70.328125 106.597656 72.109375 106.597656 74.304688 L 106.597656 86.582031 C 106.597656 88.777344 105.101562 90.554688 103.261719 90.554688 Z M 103.261719 90.554688 " fill-opacity="1" fill-rule="nonzero"/><path fill="#4bd5ff" d="M 103.261719 65.726562 L 49.421875 65.726562 C 47.582031 65.726562 46.085938 63.949219 46.085938 61.753906 L 46.085938 49.476562 C 46.085938 47.28125 47.582031 45.503906 49.421875 45.503906 L 103.261719 45.503906 C 105.101562 45.503906 106.597656 47.28125 106.597656 49.476562 L 106.597656 61.753906 C 106.597656 63.949219 105.101562 65.726562 103.261719 65.726562 Z M 103.261719 65.726562 " fill-opacity="1" fill-rule="nonzero"/><path fill="#4bd5ff" d="M 103.261719 40.902344 L 49.421875 40.902344 C 47.582031 40.902344 46.085938 39.121094 46.085938 36.925781 L 46.085938 24.648438 C 46.085938 22.453125 47.582031 20.675781 49.421875 20.675781 L 103.261719 20.675781 C 105.101562 20.675781 106.597656 22.453125 106.597656 24.648438 L 106.597656 36.925781 C 106.597656 39.121094 105.101562 40.902344 103.261719 40.902344 Z M 103.261719 40.902344 " fill-opacity="1" fill-rule="nonzero"/><g clip-path="url(#51f0c2d9fa)"><path fill="#4bd5ff" d="M 99.097656 10.804688 L 91.6875 10.804688 C 91.730469 10.589844 91.753906 10.367188 91.753906 10.140625 L 91.753906 3.382812 C 91.753906 1.539062 90.257812 0.046875 88.417969 0.046875 L 64.265625 0.046875 C 62.421875 0.046875 60.929688 1.539062 60.929688 3.382812 L 60.929688 10.140625 C 60.929688 10.367188 60.953125 10.589844 60.996094 10.804688 L 53.585938 10.804688 C 44.980469 10.804688 37.976562 17.265625 37.976562 25.207031 L 37.976562 135.675781 C 37.976562 143.617188 44.980469 150.078125 53.585938 150.078125 L 99.097656 150.078125 C 107.703125 150.078125 114.703125 143.617188 114.703125 135.675781 L 114.703125 25.207031 C 114.703125 17.265625 107.703125 10.804688 99.097656 10.804688 Z M 111.367188 135.675781 C 111.367188 141.777344 105.863281 146.742188 99.097656 146.742188 L 53.585938 146.742188 C 46.820312 146.742188 41.3125 141.777344 41.3125 135.675781 L 41.3125 25.207031 C 41.3125 19.105469 46.820312 14.140625 53.585938 14.140625 L 99.097656 14.140625 C 105.863281 14.140625 111.367188 19.105469 111.367188 25.207031 Z M 111.367188 135.675781 " fill-opacity="1" fill-rule="nonzero"/></g><path fill="#4bd5ff" d="M 103.261719 140.207031 L 49.421875 140.207031 C 47.582031 140.207031 46.085938 138.429688 46.085938 136.234375 L 46.085938 123.957031 C 46.085938 121.761719 47.582031 119.984375 49.421875 119.984375 L 103.261719 119.984375 C 105.101562 119.984375 106.597656 121.761719 106.597656 123.957031 L 106.597656 136.234375 C 106.597656 138.429688 105.101562 140.207031 103.261719 140.207031 Z M 103.261719 140.207031 " fill-opacity="1" fill-rule="nonzero"/><path fill="#4bd5ff" d="M 103.261719 115.382812 L 49.421875 115.382812 C 47.582031 115.382812 46.085938 113.601562 46.085938 111.40625 L 46.085938 99.128906 C 46.085938 96.9375 47.582031 95.15625 49.421875 95.15625 L 103.261719 95.15625 C 105.101562 95.15625 106.597656 96.9375 106.597656 99.128906 L 106.597656 111.40625 C 106.597656 113.601562 105.101562 115.382812 103.261719 115.382812 Z M 103.261719 115.382812 " fill-opacity="1" fill-rule="nonzero"/><path fill="#4bd5ff" d="M 103.261719 90.554688 L 49.421875 90.554688 C 47.582031 90.554688 46.085938 88.777344 46.085938 86.582031 L 46.085938 74.304688 C 46.085938 72.109375 47.582031 70.328125 49.421875 70.328125 L 103.261719 70.328125 C 105.101562 70.328125 106.597656 72.109375 106.597656 74.304688 L 106.597656 86.582031 C 106.597656 88.777344 105.101562 90.554688 103.261719 90.554688 Z M 103.261719 90.554688 " fill-opacity="1" fill-rule="nonzero"/><path fill="#4bd5ff" d="M 103.261719 65.726562 L 49.421875 65.726562 C 47.582031 65.726562 46.085938 63.949219 46.085938 61.753906 L 46.085938 49.476562 C 46.085938 47.28125 47.582031 45.503906 49.421875 45.503906 L 103.261719 45.503906 C 105.101562 45.503906 106.597656 47.28125 106.597656 49.476562 L 106.597656 61.753906 C 106.597656 63.949219 105.101562 65.726562 103.261719 65.726562 Z M 103.261719 65.726562 " fill-opacity="1" fill-rule="nonzero"/><path fill="#4bd5ff" d="M 103.261719 40.902344 L 49.421875 40.902344 C 47.582031 40.902344 46.085938 39.121094 46.085938 36.925781 L 46.085938 24.648438 C 46.085938 22.453125 47.582031 20.675781 49.421875 20.675781 L 103.261719 20.675781 C 105.101562 20.675781 106.597656 22.453125 106.597656 24.648438 L 106.597656 36.925781 C 106.597656 39.121094 105.101562 40.902344 103.261719 40.902344 Z M 103.261719 40.902344 " fill-opacity="1" fill-rule="nonzero"/><g clip-path="url(#76c626f969)"><path fill="#4bd5ff" d="M 99.097656 10.804688 L 91.6875 10.804688 C 91.730469 10.589844 91.753906 10.367188 91.753906 10.140625 L 91.753906 3.382812 C 91.753906 1.539062 90.257812 0.046875 88.417969 0.046875 L 64.265625 0.046875 C 62.421875 0.046875 60.929688 1.539062 60.929688 3.382812 L 60.929688 10.140625 C 60.929688 10.367188 60.953125 10.589844 60.996094 10.804688 L 53.585938 10.804688 C 44.980469 10.804688 37.976562 17.265625 37.976562 25.207031 L 37.976562 135.675781 C 37.976562 143.617188 44.980469 150.078125 53.585938 150.078125 L 99.097656 150.078125 C 107.703125 150.078125 114.703125 143.617188 114.703125 135.675781 L 114.703125 25.207031 C 114.703125 17.265625 107.703125 10.804688 99.097656 10.804688 Z M 111.367188 135.675781 C 111.367188 141.777344 105.863281 146.742188 99.097656 146.742188 L 53.585938 146.742188 C 46.820312 146.742188 41.3125 141.777344 41.3125 135.675781 L 41.3125 25.207031 C 41.3125 19.105469 46.820312 14.140625 53.585938 14.140625 L 99.097656 14.140625 C 105.863281 14.140625 111.367188 19.105469 111.367188 25.207031 Z M 111.367188 135.675781 " fill-opacity="1" fill-rule="nonzero"/></g></svg>