<svg xmlns="http://www.w3.org/2000/svg" xmlns:xlink="http://www.w3.org/1999/xlink" width="200" zoomAndPan="magnify" viewBox="0 0 150 149.999998" height="200" preserveAspectRatio="xMidYMid meet" version="1.0"><defs><clipPath id="e0cf0921cb"><path d="M 34 0 L 111.183594 0 L 111.183594 150 L 34 150 Z M 34 0 " clip-rule="nonzero"/></clipPath><clipPath id="a241d5eda7"><path d="M 34 0 L 111.183594 0 L 111.183594 150 L 34 150 Z M 34 0 " clip-rule="nonzero"/></clipPath></defs><path fill="#ff914d" d="M 99.742188 140.207031 L 45.90625 140.207031 C 44.0625 140.207031 42.570312 138.429688 42.570312 136.234375 L 42.570312 123.957031 C 42.570312 121.761719 44.0625 119.984375 45.90625 119.984375 L 99.742188 119.984375 C 101.585938 119.984375 103.078125 121.761719 103.078125 123.957031 L 103.078125 136.234375 C 103.078125 138.429688 101.585938 140.207031 99.742188 140.207031 Z M 99.742188 140.207031 " fill-opacity="1" fill-rule="nonzero"/><path fill="#ff914d" d="M 99.742188 115.382812 L 45.90625 115.382812 C 44.0625 115.382812 42.570312 113.601562 42.570312 111.40625 L 42.570312 99.128906 C 42.570312 96.9375 44.0625 95.15625 45.90625 95.15625 L 99.742188 95.15625 C 101.585938 95.15625 103.078125 96.9375 103.078125 99.128906 L 103.078125 111.40625 C 103.078125 113.601562 101.585938 115.382812 99.742188 115.382812 Z M 99.742188 115.382812 " fill-opacity="1" fill-rule="nonzero"/><path fill="#ff914d" d="M 99.742188 90.554688 L 45.90625 90.554688 C 44.0625 90.554688 42.570312 88.777344 42.570312 86.582031 L 42.570312 74.304688 C 42.570312 72.109375 44.0625 70.328125 45.90625 70.328125 L 99.742188 70.328125 C 101.585938 70.328125 103.078125 72.109375 103.078125 74.304688 L 103.078125 86.582031 C 103.078125 88.777344 101.585938 90.554688 99.742188 90.554688 Z M 99.742188 90.554688 " fill-opacity="1" fill-rule="nonzero"/><g clip-path="url(#e0cf0921cb)"><path fill="#ff914d" d="M 95.582031 10.804688 L 88.167969 10.804688 C 88.214844 10.589844 88.238281 10.367188 88.238281 10.140625 L 88.238281 3.382812 C 88.238281 1.539062 86.742188 0.046875 84.902344 0.046875 L 60.75 0.046875 C 58.90625 0.046875 57.414062 1.539062 57.414062 3.382812 L 57.414062 10.140625 C 57.414062 10.367188 57.4375 10.589844 57.480469 10.804688 L 50.070312 10.804688 C 41.464844 10.804688 34.460938 17.265625 34.460938 25.207031 L 34.460938 135.675781 C 34.460938 143.617188 41.464844 150.078125 50.070312 150.078125 L 95.582031 150.078125 C 104.1875 150.078125 111.1875 143.617188 111.1875 135.675781 L 111.1875 25.207031 C 111.1875 17.265625 104.1875 10.804688 95.582031 10.804688 Z M 107.851562 135.675781 C 107.851562 141.777344 102.347656 146.742188 95.582031 146.742188 L 50.070312 146.742188 C 43.304688 146.742188 37.796875 141.777344 37.796875 135.675781 L 37.796875 25.207031 C 37.796875 19.105469 43.304688 14.140625 50.070312 14.140625 L 95.582031 14.140625 C 102.347656 14.140625 107.851562 19.105469 107.851562 25.207031 Z M 107.851562 135.675781 " fill-opacity="1" fill-rule="nonzero"/></g><path fill="#ff914d" d="M 99.742188 140.207031 L 45.90625 140.207031 C 44.0625 140.207031 42.570312 138.429688 42.570312 136.234375 L 42.570312 123.957031 C 42.570312 121.761719 44.0625 119.984375 45.90625 119.984375 L 99.742188 119.984375 C 101.585938 119.984375 103.078125 121.761719 103.078125 123.957031 L 103.078125 136.234375 C 103.078125 138.429688 101.585938 140.207031 99.742188 140.207031 Z M 99.742188 140.207031 " fill-opacity="1" fill-rule="nonzero"/><path fill="#ff914d" d="M 99.742188 115.382812 L 45.90625 115.382812 C 44.0625 115.382812 42.570312 113.601562 42.570312 111.40625 L 42.570312 99.128906 C 42.570312 96.9375 44.0625 95.15625 45.90625 95.15625 L 99.742188 95.15625 C 101.585938 95.15625 103.078125 96.9375 103.078125 99.128906 L 103.078125 111.40625 C 103.078125 113.601562 101.585938 115.382812 99.742188 115.382812 Z M 99.742188 115.382812 " fill-opacity="1" fill-rule="nonzero"/><path fill="#ff914d" d="M 99.742188 90.554688 L 45.90625 90.554688 C 44.0625 90.554688 42.570312 88.777344 42.570312 86.582031 L 42.570312 74.304688 C 42.570312 72.109375 44.0625 70.328125 45.90625 70.328125 L 99.742188 70.328125 C 101.585938 70.328125 103.078125 72.109375 103.078125 74.304688 L 103.078125 86.582031 C 103.078125 88.777344 101.585938 90.554688 99.742188 90.554688 Z M 99.742188 90.554688 " fill-opacity="1" fill-rule="nonzero"/><g clip-path="url(#a241d5eda7)"><path fill="#ff914d" d="M 95.582031 10.804688 L 88.167969 10.804688 C 88.214844 10.589844 88.238281 10.367188 88.238281 10.140625 L 88.238281 3.382812 C 88.238281 1.539062 86.742188 0.046875 84.902344 0.046875 L 60.75 0.046875 C 58.90625 0.046875 57.414062 1.539062 57.414062 3.382812 L 57.414062 10.140625 C 57.414062 10.367188 57.4375 10.589844 57.480469 10.804688 L 50.070312 10.804688 C 41.464844 10.804688 34.460938 17.265625 34.460938 25.207031 L 34.460938 135.675781 C 34.460938 143.617188 41.464844 150.078125 50.070312 150.078125 L 95.582031 150.078125 C 104.1875 150.078125 111.1875 143.617188 111.1875 135.675781 L 111.1875 25.207031 C 111.1875 17.265625 104.1875 10.804688 95.582031 10.804688 Z M 107.851562 135.675781 C 107.851562 141.777344 102.347656 146.742188 95.582031 146.742188 L 50.070312 146.742188 C 43.304688 146.742188 37.796875 141.777344 37.796875 135.675781 L 37.796875 25.207031 C 37.796875 19.105469 43.304688 14.140625 50.070312 14.140625 L 95.582031 14.140625 C 102.347656 14.140625 107.851562 19.105469 107.851562 25.207031 Z M 107.851562 135.675781 " fill-opacity="1" fill-rule="nonzero"/></g></svg>