<svg xmlns="http://www.w3.org/2000/svg" xmlns:xlink="http://www.w3.org/1999/xlink" width="200" zoomAndPan="magnify" viewBox="0 0 150 149.999998" height="200" preserveAspectRatio="xMidYMid meet" version="1.0"><defs><clipPath id="22a754a2b0"><path d="M 0.804688 41.433594 L 149.304688 41.433594 L 149.304688 90.933594 L 0.804688 90.933594 Z M 0.804688 41.433594 " clip-rule="nonzero"/></clipPath><clipPath id="c78183bf27"><path d="M 0.804688 41.433594 L 149.304688 41.433594 L 149.304688 90.933594 L 0.804688 90.933594 Z M 0.804688 41.433594 " clip-rule="nonzero"/></clipPath></defs><path fill="#ee1527" d="M 19.476562 54.699219 L 23.273438 54.699219 L 23.273438 74.488281 L 37.007812 74.488281 L 37.007812 77.65625 L 19.476562 77.65625 L 19.476562 54.699219 " fill-opacity="1" fill-rule="nonzero"/><path fill="#ee1527" d="M 44.246094 54.699219 L 44.246094 77.65625 L 40.429688 77.65625 L 40.429688 54.699219 L 44.246094 54.699219 " fill-opacity="1" fill-rule="nonzero"/><path fill="#ee1527" d="M 57.808594 77.65625 L 47.890625 54.699219 L 52.089844 54.699219 L 57.050781 66.632812 C 58.890625 71.070312 59.636719 73.183594 60.0625 74.511719 L 60.125 74.511719 C 60.484375 73.347656 61.355469 71.25 63.046875 66.9375 L 68.210938 54.699219 L 72.289062 54.699219 L 62.203125 77.65625 L 57.808594 77.65625 " fill-opacity="1" fill-rule="nonzero"/><path fill="#ee1527" d="M 93.054688 67.207031 L 79.449219 67.207031 L 79.449219 74.507812 L 94 74.507812 L 94 77.65625 L 75.632812 77.65625 L 75.632812 54.699219 L 93.773438 54.699219 L 93.773438 57.847656 L 79.449219 57.847656 L 79.449219 64.054688 L 93.054688 64.054688 L 93.054688 67.207031 " fill-opacity="1" fill-rule="nonzero"/><path fill="#ee1527" d="M 108.117188 66.175781 C 108.117188 72.964844 113.648438 78.46875 120.46875 78.46875 C 127.289062 78.46875 132.816406 72.964844 132.816406 66.175781 C 132.816406 59.390625 127.289062 53.886719 120.46875 53.886719 C 113.648438 53.886719 108.117188 59.390625 108.117188 66.175781 " fill-opacity="1" fill-rule="nonzero"/><g clip-path="url(#22a754a2b0)"><path fill="#ee1527" d="M 25.839844 43.929688 C 13.515625 43.929688 3.488281 53.910156 3.488281 66.175781 C 3.488281 78.445312 13.515625 88.421875 25.839844 88.421875 L 124.273438 88.421875 C 136.597656 88.421875 146.625 78.445312 146.625 66.175781 C 146.625 53.910156 136.597656 43.929688 124.273438 43.929688 Z M 124.273438 90.925781 L 25.839844 90.925781 C 12.128906 90.925781 0.976562 79.824219 0.976562 66.175781 C 0.976562 52.53125 12.128906 41.429688 25.839844 41.429688 L 124.273438 41.429688 C 137.984375 41.429688 149.136719 52.53125 149.136719 66.175781 C 149.136719 79.824219 137.984375 90.925781 124.273438 90.925781 " fill-opacity="1" fill-rule="nonzero"/></g><path fill="#ee1527" d="M 19.476562 54.699219 L 23.273438 54.699219 L 23.273438 74.488281 L 37.007812 74.488281 L 37.007812 77.65625 L 19.476562 77.65625 L 19.476562 54.699219 " fill-opacity="1" fill-rule="nonzero"/><path fill="#ee1527" d="M 44.246094 54.699219 L 44.246094 77.65625 L 40.429688 77.65625 L 40.429688 54.699219 L 44.246094 54.699219 " fill-opacity="1" fill-rule="nonzero"/><path fill="#ee1527" d="M 57.808594 77.65625 L 47.890625 54.699219 L 52.089844 54.699219 L 57.050781 66.632812 C 58.890625 71.070312 59.636719 73.183594 60.0625 74.511719 L 60.125 74.511719 C 60.484375 73.347656 61.355469 71.25 63.046875 66.9375 L 68.210938 54.699219 L 72.289062 54.699219 L 62.203125 77.65625 L 57.808594 77.65625 " fill-opacity="1" fill-rule="nonzero"/><path fill="#ee1527" d="M 93.054688 67.207031 L 79.449219 67.207031 L 79.449219 74.507812 L 94 74.507812 L 94 77.65625 L 75.632812 77.65625 L 75.632812 54.699219 L 93.773438 54.699219 L 93.773438 57.847656 L 79.449219 57.847656 L 79.449219 64.054688 L 93.054688 64.054688 L 93.054688 67.207031 " fill-opacity="1" fill-rule="nonzero"/><path fill="#ee1527" d="M 108.117188 66.175781 C 108.117188 72.964844 113.648438 78.46875 120.46875 78.46875 C 127.289062 78.46875 132.816406 72.964844 132.816406 66.175781 C 132.816406 59.390625 127.289062 53.886719 120.46875 53.886719 C 113.648438 53.886719 108.117188 59.390625 108.117188 66.175781 " fill-opacity="1" fill-rule="nonzero"/><g clip-path="url(#c78183bf27)"><path fill="#ee1527" d="M 25.839844 43.929688 C 13.515625 43.929688 3.488281 53.910156 3.488281 66.175781 C 3.488281 78.445312 13.515625 88.421875 25.839844 88.421875 L 124.273438 88.421875 C 136.597656 88.421875 146.625 78.445312 146.625 66.175781 C 146.625 53.910156 136.597656 43.929688 124.273438 43.929688 Z M 124.273438 90.925781 L 25.839844 90.925781 C 12.128906 90.925781 0.976562 79.824219 0.976562 66.175781 C 0.976562 52.53125 12.128906 41.429688 25.839844 41.429688 L 124.273438 41.429688 C 137.984375 41.429688 149.136719 52.53125 149.136719 66.175781 C 149.136719 79.824219 137.984375 90.925781 124.273438 90.925781 " fill-opacity="1" fill-rule="nonzero"/></g></svg>