<svg xmlns="http://www.w3.org/2000/svg" xmlns:xlink="http://www.w3.org/1999/xlink" width="200" zoomAndPan="magnify" viewBox="0 0 150 149.999998" height="200" preserveAspectRatio="xMidYMid meet" version="1.0"><path fill="#ffffff" d="M 85.207031 149.992188 L 64.792969 149.992188 C 64.3125 149.992188 63.839844 149.945312 63.367188 149.851562 C 62.898438 149.757812 62.445312 149.617188 62 149.433594 C 61.558594 149.25 61.140625 149.027344 60.742188 148.761719 C 60.34375 148.496094 59.972656 148.191406 59.636719 147.851562 C 59.296875 147.515625 58.996094 147.144531 58.730469 146.746094 C 58.460938 146.351562 58.238281 145.929688 58.054688 145.488281 C 57.871094 145.042969 57.734375 144.589844 57.640625 144.117188 C 57.546875 143.648438 57.5 143.175781 57.5 142.695312 L 57.5 128.449219 C 54.777344 127.558594 52.140625 126.464844 49.585938 125.164062 L 39.507812 135.261719 C 39.167969 135.601562 38.800781 135.902344 38.402344 136.167969 C 38.003906 136.433594 37.582031 136.65625 37.140625 136.839844 C 36.699219 137.023438 36.242188 137.164062 35.773438 137.257812 C 35.300781 137.347656 34.828125 137.394531 34.347656 137.394531 C 33.871094 137.394531 33.394531 137.347656 32.925781 137.257812 C 32.457031 137.164062 32 137.023438 31.558594 136.839844 C 31.113281 136.65625 30.695312 136.433594 30.296875 136.167969 C 29.898438 135.902344 29.53125 135.601562 29.191406 135.261719 L 14.738281 120.808594 C 14.398438 120.46875 14.097656 120.101562 13.832031 119.703125 C 13.566406 119.304688 13.34375 118.886719 13.160156 118.441406 C 12.976562 118 12.835938 117.542969 12.742188 117.074219 C 12.652344 116.605469 12.605469 116.128906 12.605469 115.652344 C 12.605469 115.171875 12.652344 114.699219 12.742188 114.226562 C 12.835938 113.757812 12.976562 113.300781 13.160156 112.859375 C 13.34375 112.417969 13.566406 111.996094 13.832031 111.597656 C 14.097656 111.199219 14.398438 110.832031 14.738281 110.492188 L 24.835938 100.410156 C 23.542969 97.855469 22.453125 95.21875 21.566406 92.496094 L 7.300781 92.496094 C 6.820312 92.496094 6.347656 92.449219 5.878906 92.355469 C 5.410156 92.261719 4.953125 92.125 4.511719 91.941406 C 4.066406 91.757812 3.648438 91.53125 3.25 91.265625 C 2.851562 91 2.484375 90.699219 2.144531 90.359375 C 1.808594 90.019531 1.503906 89.652344 1.238281 89.253906 C 0.972656 88.855469 0.746094 88.4375 0.5625 87.996094 C 0.382812 87.550781 0.242188 87.097656 0.148438 86.625 C 0.0546875 86.15625 0.0078125 85.683594 0.0078125 85.203125 L 0.0078125 64.792969 C 0.0078125 64.3125 0.0546875 63.839844 0.148438 63.371094 C 0.242188 62.898438 0.382812 62.445312 0.5625 62.003906 C 0.746094 61.558594 0.972656 61.140625 1.238281 60.742188 C 1.503906 60.34375 1.808594 59.976562 2.144531 59.636719 C 2.484375 59.296875 2.851562 58.996094 3.25 58.730469 C 3.648438 58.464844 4.066406 58.238281 4.511719 58.054688 C 4.953125 57.871094 5.410156 57.734375 5.878906 57.640625 C 6.347656 57.546875 6.820312 57.5 7.300781 57.5 L 21.550781 57.5 C 22.433594 54.777344 23.523438 52.140625 24.816406 49.585938 L 14.738281 39.507812 C 14.398438 39.167969 14.097656 38.800781 13.832031 38.402344 C 13.566406 38.003906 13.34375 37.582031 13.160156 37.140625 C 12.976562 36.699219 12.835938 36.242188 12.742188 35.773438 C 12.652344 35.300781 12.605469 34.828125 12.605469 34.347656 C 12.605469 33.871094 12.652344 33.394531 12.742188 32.925781 C 12.835938 32.457031 12.976562 32 13.160156 31.558594 C 13.34375 31.113281 13.566406 30.695312 13.832031 30.296875 C 14.097656 29.898438 14.398438 29.53125 14.738281 29.191406 L 29.191406 14.738281 C 29.53125 14.398438 29.898438 14.097656 30.296875 13.832031 C 30.695312 13.566406 31.113281 13.34375 31.558594 13.160156 C 32 12.976562 32.457031 12.835938 32.925781 12.742188 C 33.394531 12.652344 33.871094 12.605469 34.347656 12.605469 C 34.828125 12.605469 35.300781 12.652344 35.773438 12.742188 C 36.242188 12.835938 36.699219 12.976562 37.140625 13.160156 C 37.582031 13.34375 38.003906 13.566406 38.402344 13.832031 C 38.800781 14.097656 39.167969 14.398438 39.507812 14.738281 L 49.589844 24.835938 C 52.144531 23.542969 54.78125 22.453125 57.503906 21.566406 L 57.503906 7.300781 C 57.503906 6.820312 57.550781 6.347656 57.644531 5.878906 C 57.738281 5.410156 57.875 4.953125 58.058594 4.511719 C 58.242188 4.066406 58.46875 3.648438 58.734375 3.25 C 59 2.851562 59.300781 2.484375 59.640625 2.144531 C 59.980469 1.808594 60.347656 1.503906 60.746094 1.238281 C 61.144531 0.972656 61.5625 0.746094 62.003906 0.5625 C 62.449219 0.382812 62.902344 0.242188 63.375 0.148438 C 63.84375 0.0546875 64.316406 0.0078125 64.796875 0.0078125 L 85.210938 0.0078125 C 85.691406 0.0078125 86.164062 0.0546875 86.632812 0.148438 C 87.105469 0.242188 87.558594 0.382812 88 0.5625 C 88.445312 0.746094 88.863281 0.972656 89.261719 1.238281 C 89.660156 1.503906 90.027344 1.808594 90.367188 2.144531 C 90.707031 2.484375 91.007812 2.851562 91.273438 3.25 C 91.539062 3.648438 91.765625 4.066406 91.949219 4.511719 C 92.132812 4.953125 92.269531 5.410156 92.363281 5.878906 C 92.457031 6.347656 92.503906 6.820312 92.503906 7.300781 L 92.503906 21.550781 C 95.226562 22.433594 97.863281 23.523438 100.417969 24.816406 L 110.492188 14.738281 C 110.832031 14.398438 111.199219 14.097656 111.597656 13.832031 C 111.996094 13.566406 112.417969 13.34375 112.859375 13.160156 C 113.300781 12.976562 113.757812 12.835938 114.226562 12.742188 C 114.699219 12.652344 115.171875 12.605469 115.652344 12.605469 C 116.128906 12.605469 116.605469 12.652344 117.074219 12.742188 C 117.542969 12.835938 118 12.976562 118.441406 13.160156 C 118.886719 13.34375 119.304688 13.566406 119.703125 13.832031 C 120.101562 14.097656 120.46875 14.398438 120.808594 14.738281 L 135.261719 29.191406 C 135.597656 29.53125 135.902344 29.898438 136.167969 30.296875 C 136.433594 30.695312 136.65625 31.117188 136.839844 31.558594 C 137.023438 32 137.160156 32.457031 137.253906 32.925781 C 137.347656 33.394531 137.394531 33.871094 137.394531 34.347656 C 137.394531 34.828125 137.347656 35.300781 137.253906 35.773438 C 137.160156 36.242188 137.023438 36.699219 136.839844 37.140625 C 136.65625 37.582031 136.433594 38.003906 136.167969 38.402344 C 135.902344 38.800781 135.597656 39.167969 135.261719 39.507812 L 125.164062 49.589844 C 126.464844 52.140625 127.558594 54.78125 128.449219 57.503906 L 142.695312 57.503906 C 143.175781 57.503906 143.648438 57.550781 144.117188 57.644531 C 144.589844 57.738281 145.042969 57.875 145.488281 58.058594 C 145.929688 58.242188 146.351562 58.464844 146.746094 58.734375 C 147.144531 59 147.515625 59.300781 147.851562 59.640625 C 148.191406 59.976562 148.496094 60.347656 148.761719 60.746094 C 149.027344 61.140625 149.25 61.5625 149.433594 62.003906 C 149.617188 62.445312 149.757812 62.902344 149.851562 63.371094 C 149.945312 63.84375 149.992188 64.316406 149.992188 64.796875 L 149.992188 85.210938 C 149.992188 85.691406 149.945312 86.164062 149.851562 86.632812 C 149.757812 87.105469 149.617188 87.558594 149.433594 88.003906 C 149.25 88.445312 149.027344 88.863281 148.761719 89.261719 C 148.496094 89.660156 148.191406 90.03125 147.851562 90.367188 C 147.515625 90.707031 147.144531 91.007812 146.746094 91.273438 C 146.351562 91.539062 145.929688 91.765625 145.488281 91.949219 C 145.042969 92.132812 144.589844 92.269531 144.117188 92.363281 C 143.648438 92.457031 143.175781 92.503906 142.695312 92.503906 L 128.449219 92.503906 C 127.558594 95.226562 126.464844 97.863281 125.164062 100.417969 L 135.261719 110.492188 C 135.597656 110.832031 135.902344 111.199219 136.167969 111.597656 C 136.433594 111.996094 136.65625 112.417969 136.839844 112.859375 C 137.023438 113.300781 137.160156 113.757812 137.253906 114.226562 C 137.347656 114.699219 137.394531 115.171875 137.394531 115.652344 C 137.394531 116.128906 137.347656 116.605469 137.253906 117.074219 C 137.160156 117.542969 137.023438 118 136.839844 118.441406 C 136.65625 118.882812 136.433594 119.304688 136.167969 119.703125 C 135.902344 120.101562 135.597656 120.46875 135.261719 120.808594 L 120.808594 135.261719 C 120.46875 135.601562 120.101562 135.902344 119.703125 136.167969 C 119.304688 136.433594 118.886719 136.65625 118.441406 136.839844 C 118 137.023438 117.542969 137.164062 117.074219 137.257812 C 116.605469 137.347656 116.128906 137.394531 115.652344 137.394531 C 115.171875 137.394531 114.699219 137.347656 114.226562 137.257812 C 113.757812 137.164062 113.300781 137.023438 112.859375 136.839844 C 112.417969 136.65625 111.996094 136.433594 111.597656 136.167969 C 111.199219 135.902344 110.832031 135.601562 110.492188 135.261719 L 100.410156 125.164062 C 97.859375 126.464844 95.21875 127.558594 92.496094 128.449219 L 92.496094 142.699219 C 92.496094 143.179688 92.449219 143.652344 92.355469 144.121094 C 92.261719 144.589844 92.125 145.046875 91.941406 145.488281 C 91.757812 145.929688 91.53125 146.351562 91.265625 146.75 C 91 147.148438 90.699219 147.515625 90.359375 147.851562 C 90.023438 148.191406 89.652344 148.492188 89.257812 148.761719 C 88.859375 149.027344 88.4375 149.25 87.996094 149.433594 C 87.554688 149.617188 87.097656 149.757812 86.628906 149.851562 C 86.160156 149.945312 85.6875 149.992188 85.207031 149.992188 Z M 48.929688 117.058594 C 49.574219 117.054688 50.179688 117.214844 50.742188 117.539062 C 54.328125 119.59375 58.113281 121.164062 62.097656 122.257812 C 62.484375 122.363281 62.839844 122.527344 63.171875 122.75 C 63.5 122.972656 63.785156 123.242188 64.027344 123.558594 C 64.269531 123.875 64.453125 124.21875 64.582031 124.597656 C 64.710938 124.976562 64.773438 125.363281 64.773438 125.761719 L 64.773438 142.707031 C 64.769531 142.730469 64.78125 142.742188 64.804688 142.742188 L 85.222656 142.742188 C 85.246094 142.742188 85.253906 142.730469 85.253906 142.710938 L 85.253906 125.75 C 85.253906 125.351562 85.320312 124.964844 85.445312 124.585938 C 85.574219 124.210938 85.757812 123.863281 86 123.546875 C 86.242188 123.230469 86.527344 122.960938 86.859375 122.738281 C 87.1875 122.515625 87.546875 122.351562 87.929688 122.246094 C 91.914062 121.15625 95.699219 119.582031 99.28125 117.527344 C 99.628906 117.332031 99.996094 117.195312 100.382812 117.121094 C 100.773438 117.042969 101.164062 117.03125 101.558594 117.085938 C 101.953125 117.136719 102.328125 117.253906 102.683594 117.429688 C 103.039062 117.605469 103.359375 117.832031 103.636719 118.113281 L 115.617188 130.09375 C 115.636719 130.109375 115.652344 130.109375 115.667969 130.09375 L 130.101562 115.660156 C 130.121094 115.640625 130.121094 115.625 130.101562 115.609375 L 118.125 103.628906 C 117.84375 103.347656 117.613281 103.027344 117.4375 102.671875 C 117.265625 102.316406 117.148438 101.941406 117.097656 101.546875 C 117.042969 101.15625 117.054688 100.761719 117.132812 100.375 C 117.207031 99.984375 117.34375 99.617188 117.539062 99.273438 C 119.59375 95.6875 121.167969 91.902344 122.257812 87.917969 C 122.363281 87.535156 122.527344 87.179688 122.75 86.847656 C 122.972656 86.515625 123.242188 86.230469 123.558594 85.988281 C 123.875 85.746094 124.21875 85.5625 124.597656 85.4375 C 124.976562 85.308594 125.363281 85.246094 125.761719 85.246094 L 142.707031 85.246094 C 142.730469 85.246094 142.742188 85.234375 142.742188 85.210938 L 142.742188 64.792969 C 142.742188 64.765625 142.730469 64.757812 142.707031 64.757812 L 125.75 64.757812 C 125.351562 64.757812 124.964844 64.695312 124.585938 64.566406 C 124.210938 64.441406 123.863281 64.253906 123.546875 64.015625 C 123.230469 63.773438 122.960938 63.484375 122.738281 63.15625 C 122.515625 62.824219 122.351562 62.46875 122.246094 62.082031 C 121.15625 58.101562 119.582031 54.316406 117.527344 50.730469 C 117.332031 50.386719 117.195312 50.019531 117.121094 49.628906 C 117.042969 49.242188 117.03125 48.847656 117.085938 48.457031 C 117.136719 48.0625 117.253906 47.6875 117.429688 47.332031 C 117.605469 46.976562 117.832031 46.65625 118.113281 46.375 L 130.09375 34.394531 C 130.109375 34.378906 130.109375 34.363281 130.09375 34.347656 L 115.675781 19.890625 C 115.660156 19.875 115.640625 19.875 115.625 19.890625 L 103.644531 31.871094 C 103.363281 32.148438 103.046875 32.378906 102.691406 32.554688 C 102.335938 32.730469 101.960938 32.84375 101.566406 32.894531 C 101.171875 32.949219 100.78125 32.9375 100.390625 32.863281 C 100.003906 32.785156 99.632812 32.648438 99.289062 32.453125 C 95.707031 30.398438 91.921875 28.828125 87.9375 27.734375 C 87.554688 27.628906 87.195312 27.464844 86.867188 27.242188 C 86.535156 27.023438 86.25 26.753906 86.007812 26.4375 C 85.765625 26.121094 85.582031 25.773438 85.453125 25.394531 C 85.328125 25.019531 85.261719 24.628906 85.261719 24.230469 L 85.261719 7.300781 C 85.261719 7.277344 85.25 7.269531 85.230469 7.269531 L 64.792969 7.269531 C 64.769531 7.269531 64.757812 7.277344 64.757812 7.300781 L 64.757812 24.25 C 64.757812 24.648438 64.695312 25.035156 64.566406 25.414062 C 64.441406 25.789062 64.253906 26.136719 64.015625 26.453125 C 63.773438 26.769531 63.484375 27.039062 63.15625 27.261719 C 62.824219 27.484375 62.46875 27.648438 62.082031 27.753906 C 58.097656 28.84375 54.3125 30.417969 50.726562 32.472656 C 50.382812 32.667969 50.015625 32.804688 49.625 32.878906 C 49.238281 32.957031 48.84375 32.96875 48.453125 32.914062 C 48.058594 32.863281 47.683594 32.746094 47.328125 32.570312 C 46.972656 32.394531 46.652344 32.167969 46.371094 31.886719 L 34.390625 19.90625 C 34.375 19.890625 34.359375 19.890625 34.339844 19.90625 L 19.890625 34.339844 C 19.875 34.359375 19.875 34.375 19.890625 34.390625 L 31.871094 46.367188 C 32.148438 46.648438 32.378906 46.96875 32.554688 47.324219 C 32.730469 47.679688 32.84375 48.054688 32.894531 48.449219 C 32.949219 48.839844 32.9375 49.234375 32.863281 49.621094 C 32.785156 50.011719 32.648438 50.378906 32.453125 50.726562 C 30.398438 54.308594 28.828125 58.09375 27.734375 62.078125 C 27.628906 62.460938 27.464844 62.816406 27.242188 63.148438 C 27.023438 63.480469 26.753906 63.765625 26.4375 64.007812 C 26.121094 64.25 25.773438 64.433594 25.394531 64.5625 C 25.019531 64.6875 24.628906 64.753906 24.230469 64.75 L 7.300781 64.75 C 7.277344 64.75 7.269531 64.761719 7.269531 64.785156 L 7.269531 85.199219 C 7.269531 85.222656 7.277344 85.234375 7.300781 85.234375 L 24.25 85.234375 C 24.648438 85.234375 25.035156 85.296875 25.414062 85.425781 C 25.789062 85.550781 26.136719 85.738281 26.453125 85.980469 C 26.769531 86.21875 27.039062 86.507812 27.261719 86.835938 C 27.484375 87.167969 27.648438 87.523438 27.753906 87.910156 C 28.84375 91.894531 30.417969 95.675781 32.472656 99.261719 C 32.667969 99.605469 32.804688 99.972656 32.878906 100.363281 C 32.957031 100.753906 32.96875 101.144531 32.914062 101.539062 C 32.863281 101.929688 32.746094 102.304688 32.570312 102.660156 C 32.394531 103.015625 32.167969 103.335938 31.886719 103.617188 L 19.90625 115.597656 C 19.894531 115.613281 19.894531 115.628906 19.90625 115.648438 L 34.339844 130.109375 C 34.359375 130.125 34.375 130.125 34.390625 130.109375 L 46.371094 118.128906 C 47.078125 117.421875 47.929688 117.066406 48.929688 117.058594 Z M 75.046875 113.65625 C 72.503906 113.664062 69.984375 113.425781 67.488281 112.9375 C 64.992188 112.449219 62.566406 111.71875 60.214844 110.746094 C 57.863281 109.777344 55.628906 108.585938 53.515625 107.175781 C 51.398438 105.761719 49.441406 104.15625 47.644531 102.355469 C 36.785156 91.496094 33.457031 75.464844 38.960938 60.523438 C 39.867188 58.050781 41.03125 55.707031 42.449219 53.488281 C 43.867188 51.273438 45.507812 49.234375 47.367188 47.371094 C 49.230469 45.511719 51.269531 43.871094 53.488281 42.453125 C 55.703125 41.035156 58.046875 39.871094 60.519531 38.964844 C 75.460938 33.457031 91.492188 36.785156 102.355469 47.644531 C 113.214844 58.507812 116.542969 74.535156 111.039062 89.480469 C 110.132812 91.953125 108.96875 94.296875 107.550781 96.511719 C 106.132812 98.730469 104.492188 100.769531 102.628906 102.632812 C 100.769531 104.492188 98.726562 106.132812 96.511719 107.550781 C 94.292969 108.96875 91.949219 110.132812 89.476562 111.039062 C 84.824219 112.769531 80.011719 113.640625 75.046875 113.65625 Z M 75.101562 43.558594 C 70.945312 43.578125 66.921875 44.316406 63.03125 45.773438 C 61.054688 46.5 59.179688 47.429688 57.402344 48.566406 C 55.628906 49.699219 53.996094 51.011719 52.507812 52.5 C 51.015625 53.988281 49.703125 55.621094 48.566406 57.394531 C 47.433594 59.167969 46.5 61.042969 45.773438 63.019531 C 41.191406 75.457031 43.808594 88.238281 52.78125 97.207031 C 54.222656 98.671875 55.796875 99.980469 57.503906 101.132812 C 59.207031 102.28125 61.011719 103.253906 62.910156 104.046875 C 64.808594 104.835938 66.765625 105.433594 68.785156 105.832031 C 70.804688 106.234375 72.839844 106.433594 74.898438 106.425781 C 79.054688 106.40625 83.078125 105.671875 86.96875 104.210938 C 88.945312 103.488281 90.820312 102.558594 92.59375 101.425781 C 94.371094 100.289062 96 98.980469 97.492188 97.492188 C 98.980469 96.003906 100.292969 94.375 101.429688 92.601562 C 102.566406 90.828125 103.5 88.953125 104.226562 86.980469 C 108.808594 74.542969 106.191406 61.761719 97.21875 52.789062 C 95.777344 51.324219 94.203125 50.015625 92.496094 48.863281 C 90.792969 47.710938 88.992188 46.738281 87.089844 45.945312 C 85.191406 45.152344 83.234375 44.554688 81.214844 44.152344 C 79.199219 43.753906 77.160156 43.554688 75.101562 43.558594 Z M 75.101562 43.558594 " fill-opacity="1" fill-rule="nonzero"/><path fill="#000000" d="M 85.207031 149.992188 L 64.792969 149.992188 C 64.3125 149.992188 63.839844 149.945312 63.367188 149.851562 C 62.898438 149.757812 62.445312 149.617188 62 149.433594 C 61.558594 149.25 61.140625 149.027344 60.742188 148.761719 C 60.34375 148.496094 59.972656 148.191406 59.636719 147.851562 C 59.296875 147.515625 58.996094 147.144531 58.730469 146.746094 C 58.460938 146.351562 58.238281 145.929688 58.054688 145.488281 C 57.871094 145.042969 57.734375 144.589844 57.640625 144.117188 C 57.546875 143.648438 57.5 143.175781 57.5 142.695312 L 57.5 128.449219 C 54.777344 127.558594 52.140625 126.464844 49.585938 125.164062 L 39.507812 135.261719 C 39.167969 135.601562 38.800781 135.902344 38.402344 136.167969 C 38.003906 136.433594 37.582031 136.65625 37.140625 136.839844 C 36.699219 137.023438 36.242188 137.164062 35.773438 137.257812 C 35.300781 137.347656 34.828125 137.394531 34.347656 137.394531 C 33.871094 137.394531 33.394531 137.347656 32.925781 137.257812 C 32.457031 137.164062 32 137.023438 31.558594 136.839844 C 31.113281 136.65625 30.695312 136.433594 30.296875 136.167969 C 29.898438 135.902344 29.53125 135.601562 29.191406 135.261719 L 14.738281 120.808594 C 14.398438 120.46875 14.097656 120.101562 13.832031 119.703125 C 13.566406 119.304688 13.34375 118.886719 13.160156 118.441406 C 12.976562 118 12.835938 117.542969 12.742188 117.074219 C 12.652344 116.605469 12.605469 116.128906 12.605469 115.652344 C 12.605469 115.171875 12.652344 114.699219 12.742188 114.226562 C 12.835938 113.757812 12.976562 113.300781 13.160156 112.859375 C 13.34375 112.417969 13.566406 111.996094 13.832031 111.597656 C 14.097656 111.199219 14.398438 110.832031 14.738281 110.492188 L 24.835938 100.410156 C 23.542969 97.855469 22.453125 95.21875 21.566406 92.496094 L 7.300781 92.496094 C 6.820312 92.496094 6.347656 92.449219 5.878906 92.355469 C 5.410156 92.261719 4.953125 92.125 4.511719 91.941406 C 4.066406 91.757812 3.648438 91.53125 3.25 91.265625 C 2.851562 91 2.484375 90.699219 2.144531 90.359375 C 1.808594 90.019531 1.503906 89.652344 1.238281 89.253906 C 0.972656 88.855469 0.746094 88.4375 0.5625 87.996094 C 0.382812 87.550781 0.242188 87.097656 0.148438 86.625 C 0.0546875 86.15625 0.0078125 85.683594 0.0078125 85.203125 L 0.0078125 64.792969 C 0.0078125 64.3125 0.0546875 63.839844 0.148438 63.371094 C 0.242188 62.898438 0.382812 62.445312 0.5625 62.003906 C 0.746094 61.558594 0.972656 61.140625 1.238281 60.742188 C 1.503906 60.34375 1.808594 59.976562 2.144531 59.636719 C 2.484375 59.296875 2.851562 58.996094 3.25 58.730469 C 3.648438 58.464844 4.066406 58.238281 4.511719 58.054688 C 4.953125 57.871094 5.410156 57.734375 5.878906 57.640625 C 6.347656 57.546875 6.820312 57.5 7.300781 57.5 L 21.550781 57.5 C 22.433594 54.777344 23.523438 52.140625 24.816406 49.585938 L 14.738281 39.507812 C 14.398438 39.167969 14.097656 38.800781 13.832031 38.402344 C 13.566406 38.003906 13.34375 37.582031 13.160156 37.140625 C 12.976562 36.699219 12.835938 36.242188 12.742188 35.773438 C 12.652344 35.300781 12.605469 34.828125 12.605469 34.347656 C 12.605469 33.871094 12.652344 33.394531 12.742188 32.925781 C 12.835938 32.457031 12.976562 32 13.160156 31.558594 C 13.34375 31.113281 13.566406 30.695312 13.832031 30.296875 C 14.097656 29.898438 14.398438 29.53125 14.738281 29.191406 L 29.191406 14.738281 C 29.53125 14.398438 29.898438 14.097656 30.296875 13.832031 C 30.695312 13.566406 31.113281 13.34375 31.558594 13.160156 C 32 12.976562 32.457031 12.835938 32.925781 12.742188 C 33.394531 12.652344 33.871094 12.605469 34.347656 12.605469 C 34.828125 12.605469 35.300781 12.652344 35.773438 12.742188 C 36.242188 12.835938 36.699219 12.976562 37.140625 13.160156 C 37.582031 13.34375 38.003906 13.566406 38.402344 13.832031 C 38.800781 14.097656 39.167969 14.398438 39.507812 14.738281 L 49.589844 24.835938 C 52.144531 23.542969 54.78125 22.453125 57.503906 21.566406 L 57.503906 7.300781 C 57.503906 6.820312 57.550781 6.347656 57.644531 5.878906 C 57.738281 5.410156 57.875 4.953125 58.058594 4.511719 C 58.242188 4.066406 58.46875 3.648438 58.734375 3.25 C 59 2.851562 59.300781 2.484375 59.640625 2.144531 C 59.980469 1.808594 60.347656 1.503906 60.746094 1.238281 C 61.144531 0.972656 61.5625 0.746094 62.003906 0.5625 C 62.449219 0.382812 62.902344 0.242188 63.375 0.148438 C 63.84375 0.0546875 64.316406 0.0078125 64.796875 0.0078125 L 85.210938 0.0078125 C 85.691406 0.0078125 86.164062 0.0546875 86.632812 0.148438 C 87.105469 0.242188 87.558594 0.382812 88 0.5625 C 88.445312 0.746094 88.863281 0.972656 89.261719 1.238281 C 89.660156 1.503906 90.027344 1.808594 90.367188 2.144531 C 90.707031 2.484375 91.007812 2.851562 91.273438 3.25 C 91.539062 3.648438 91.765625 4.066406 91.949219 4.511719 C 92.132812 4.953125 92.269531 5.410156 92.363281 5.878906 C 92.457031 6.347656 92.503906 6.820312 92.503906 7.300781 L 92.503906 21.550781 C 95.226562 22.433594 97.863281 23.523438 100.417969 24.816406 L 110.492188 14.738281 C 110.832031 14.398438 111.199219 14.097656 111.597656 13.832031 C 111.996094 13.566406 112.417969 13.34375 112.859375 13.160156 C 113.300781 12.976562 113.757812 12.835938 114.226562 12.742188 C 114.699219 12.652344 115.171875 12.605469 115.652344 12.605469 C 116.128906 12.605469 116.605469 12.652344 117.074219 12.742188 C 117.542969 12.835938 118 12.976562 118.441406 13.160156 C 118.886719 13.34375 119.304688 13.566406 119.703125 13.832031 C 120.101562 14.097656 120.46875 14.398438 120.808594 14.738281 L 135.261719 29.191406 C 135.597656 29.53125 135.902344 29.898438 136.167969 30.296875 C 136.433594 30.695312 136.65625 31.117188 136.839844 31.558594 C 137.023438 32 137.160156 32.457031 137.253906 32.925781 C 137.347656 33.394531 137.394531 33.871094 137.394531 34.347656 C 137.394531 34.828125 137.347656 35.300781 137.253906 35.773438 C 137.160156 36.242188 137.023438 36.699219 136.839844 37.140625 C 136.65625 37.582031 136.433594 38.003906 136.167969 38.402344 C 135.902344 38.800781 135.597656 39.167969 135.261719 39.507812 L 125.164062 49.589844 C 126.464844 52.140625 127.558594 54.78125 128.449219 57.503906 L 142.695312 57.503906 C 143.175781 57.503906 143.648438 57.550781 144.117188 57.644531 C 144.589844 57.738281 145.042969 57.875 145.488281 58.058594 C 145.929688 58.242188 146.351562 58.464844 146.746094 58.734375 C 147.144531 59 147.515625 59.300781 147.851562 59.640625 C 148.191406 59.976562 148.496094 60.347656 148.761719 60.746094 C 149.027344 61.140625 149.25 61.5625 149.433594 62.003906 C 149.617188 62.445312 149.757812 62.902344 149.851562 63.371094 C 149.945312 63.84375 149.992188 64.316406 149.992188 64.796875 L 149.992188 85.210938 C 149.992188 85.691406 149.945312 86.164062 149.851562 86.632812 C 149.757812 87.105469 149.617188 87.558594 149.433594 88.003906 C 149.25 88.445312 149.027344 88.863281 148.761719 89.261719 C 148.496094 89.660156 148.191406 90.03125 147.851562 90.367188 C 147.515625 90.707031 147.144531 91.007812 146.746094 91.273438 C 146.351562 91.539062 145.929688 91.765625 145.488281 91.949219 C 145.042969 92.132812 144.589844 92.269531 144.117188 92.363281 C 143.648438 92.457031 143.175781 92.503906 142.695312 92.503906 L 128.449219 92.503906 C 127.558594 95.226562 126.464844 97.863281 125.164062 100.417969 L 135.261719 110.492188 C 135.597656 110.832031 135.902344 111.199219 136.167969 111.597656 C 136.433594 111.996094 136.65625 112.417969 136.839844 112.859375 C 137.023438 113.300781 137.160156 113.757812 137.253906 114.226562 C 137.347656 114.699219 137.394531 115.171875 137.394531 115.652344 C 137.394531 116.128906 137.347656 116.605469 137.253906 117.074219 C 137.160156 117.542969 137.023438 118 136.839844 118.441406 C 136.65625 118.882812 136.433594 119.304688 136.167969 119.703125 C 135.902344 120.101562 135.597656 120.46875 135.261719 120.808594 L 120.808594 135.261719 C 120.46875 135.601562 120.101562 135.902344 119.703125 136.167969 C 119.304688 136.433594 118.886719 136.65625 118.441406 136.839844 C 118 137.023438 117.542969 137.164062 117.074219 137.257812 C 116.605469 137.347656 116.128906 137.394531 115.652344 137.394531 C 115.171875 137.394531 114.699219 137.347656 114.226562 137.257812 C 113.757812 137.164062 113.300781 137.023438 112.859375 136.839844 C 112.417969 136.65625 111.996094 136.433594 111.597656 136.167969 C 111.199219 135.902344 110.832031 135.601562 110.492188 135.261719 L 100.410156 125.164062 C 97.859375 126.464844 95.21875 127.558594 92.496094 128.449219 L 92.496094 142.699219 C 92.496094 143.179688 92.449219 143.652344 92.355469 144.121094 C 92.261719 144.589844 92.125 145.046875 91.941406 145.488281 C 91.757812 145.929688 91.53125 146.351562 91.265625 146.75 C 91 147.148438 90.699219 147.515625 90.359375 147.851562 C 90.023438 148.191406 89.652344 148.492188 89.257812 148.761719 C 88.859375 149.027344 88.4375 149.25 87.996094 149.433594 C 87.554688 149.617188 87.097656 149.757812 86.628906 149.851562 C 86.160156 149.945312 85.6875 149.992188 85.207031 149.992188 Z M 48.929688 117.058594 C 49.574219 117.054688 50.179688 117.214844 50.742188 117.539062 C 54.328125 119.59375 58.113281 121.164062 62.097656 122.257812 C 62.484375 122.363281 62.839844 122.527344 63.171875 122.75 C 63.5 122.972656 63.785156 123.242188 64.027344 123.558594 C 64.269531 123.875 64.453125 124.21875 64.582031 124.597656 C 64.710938 124.976562 64.773438 125.363281 64.773438 125.761719 L 64.773438 142.707031 C 64.769531 142.730469 64.78125 142.742188 64.804688 142.742188 L 85.222656 142.742188 C 85.246094 142.742188 85.253906 142.730469 85.253906 142.710938 L 85.253906 125.75 C 85.253906 125.351562 85.320312 124.964844 85.445312 124.585938 C 85.574219 124.210938 85.757812 123.863281 86 123.546875 C 86.242188 123.230469 86.527344 122.960938 86.859375 122.738281 C 87.1875 122.515625 87.546875 122.351562 87.929688 122.246094 C 91.914062 121.15625 95.699219 119.582031 99.28125 117.527344 C 99.628906 117.332031 99.996094 117.195312 100.382812 117.121094 C 100.773438 117.042969 101.164062 117.03125 101.558594 117.085938 C 101.953125 117.136719 102.328125 117.253906 102.683594 117.429688 C 103.039062 117.605469 103.359375 117.832031 103.636719 118.113281 L 115.617188 130.09375 C 115.636719 130.109375 115.652344 130.109375 115.667969 130.09375 L 130.101562 115.660156 C 130.121094 115.640625 130.121094 115.625 130.101562 115.609375 L 118.125 103.628906 C 117.84375 103.347656 117.613281 103.027344 117.4375 102.671875 C 117.265625 102.316406 117.148438 101.941406 117.097656 101.546875 C 117.042969 101.15625 117.054688 100.761719 117.132812 100.375 C 117.207031 99.984375 117.34375 99.617188 117.539062 99.273438 C 119.59375 95.6875 121.167969 91.902344 122.257812 87.917969 C 122.363281 87.535156 122.527344 87.179688 122.75 86.847656 C 122.972656 86.515625 123.242188 86.230469 123.558594 85.988281 C 123.875 85.746094 124.21875 85.5625 124.597656 85.4375 C 124.976562 85.308594 125.363281 85.246094 125.761719 85.246094 L 142.707031 85.246094 C 142.730469 85.246094 142.742188 85.234375 142.742188 85.210938 L 142.742188 64.792969 C 142.742188 64.765625 142.730469 64.757812 142.707031 64.757812 L 125.75 64.757812 C 125.351562 64.757812 124.964844 64.695312 124.585938 64.566406 C 124.210938 64.441406 123.863281 64.253906 123.546875 64.015625 C 123.230469 63.773438 122.960938 63.484375 122.738281 63.15625 C 122.515625 62.824219 122.351562 62.46875 122.246094 62.082031 C 121.15625 58.101562 119.582031 54.316406 117.527344 50.730469 C 117.332031 50.386719 117.195312 50.019531 117.121094 49.628906 C 117.042969 49.242188 117.03125 48.847656 117.085938 48.457031 C 117.136719 48.0625 117.253906 47.6875 117.429688 47.332031 C 117.605469 46.976562 117.832031 46.65625 118.113281 46.375 L 130.09375 34.394531 C 130.109375 34.378906 130.109375 34.363281 130.09375 34.347656 L 115.675781 19.890625 C 115.660156 19.875 115.640625 19.875 115.625 19.890625 L 103.644531 31.871094 C 103.363281 32.148438 103.046875 32.378906 102.691406 32.554688 C 102.335938 32.730469 101.960938 32.84375 101.566406 32.894531 C 101.171875 32.949219 100.78125 32.9375 100.390625 32.863281 C 100.003906 32.785156 99.632812 32.648438 99.289062 32.453125 C 95.707031 30.398438 91.921875 28.828125 87.9375 27.734375 C 87.554688 27.628906 87.195312 27.464844 86.867188 27.242188 C 86.535156 27.023438 86.25 26.753906 86.007812 26.4375 C 85.765625 26.121094 85.582031 25.773438 85.453125 25.394531 C 85.328125 25.019531 85.261719 24.628906 85.261719 24.230469 L 85.261719 7.300781 C 85.261719 7.277344 85.25 7.269531 85.230469 7.269531 L 64.792969 7.269531 C 64.769531 7.269531 64.757812 7.277344 64.757812 7.300781 L 64.757812 24.25 C 64.757812 24.648438 64.695312 25.035156 64.566406 25.414062 C 64.441406 25.789062 64.253906 26.136719 64.015625 26.453125 C 63.773438 26.769531 63.484375 27.039062 63.15625 27.261719 C 62.824219 27.484375 62.46875 27.648438 62.082031 27.753906 C 58.097656 28.84375 54.3125 30.417969 50.726562 32.472656 C 50.382812 32.667969 50.015625 32.804688 49.625 32.878906 C 49.238281 32.957031 48.84375 32.96875 48.453125 32.914062 C 48.058594 32.863281 47.683594 32.746094 47.328125 32.570312 C 46.972656 32.394531 46.652344 32.167969 46.371094 31.886719 L 34.390625 19.90625 C 34.375 19.890625 34.359375 19.890625 34.339844 19.90625 L 19.890625 34.339844 C 19.875 34.359375 19.875 34.375 19.890625 34.390625 L 31.871094 46.367188 C 32.148438 46.648438 32.378906 46.96875 32.554688 47.324219 C 32.730469 47.679688 32.84375 48.054688 32.894531 48.449219 C 32.949219 48.839844 32.9375 49.234375 32.863281 49.621094 C 32.785156 50.011719 32.648438 50.378906 32.453125 50.726562 C 30.398438 54.308594 28.828125 58.09375 27.734375 62.078125 C 27.628906 62.460938 27.464844 62.816406 27.242188 63.148438 C 27.023438 63.480469 26.753906 63.765625 26.4375 64.007812 C 26.121094 64.25 25.773438 64.433594 25.394531 64.5625 C 25.019531 64.6875 24.628906 64.753906 24.230469 64.75 L 7.300781 64.75 C 7.277344 64.75 7.269531 64.761719 7.269531 64.785156 L 7.269531 85.199219 C 7.269531 85.222656 7.277344 85.234375 7.300781 85.234375 L 24.25 85.234375 C 24.648438 85.234375 25.035156 85.296875 25.414062 85.425781 C 25.789062 85.550781 26.136719 85.738281 26.453125 85.980469 C 26.769531 86.21875 27.039062 86.507812 27.261719 86.835938 C 27.484375 87.167969 27.648438 87.523438 27.753906 87.910156 C 28.84375 91.894531 30.417969 95.675781 32.472656 99.261719 C 32.667969 99.605469 32.804688 99.972656 32.878906 100.363281 C 32.957031 100.753906 32.96875 101.144531 32.914062 101.539062 C 32.863281 101.929688 32.746094 102.304688 32.570312 102.660156 C 32.394531 103.015625 32.167969 103.335938 31.886719 103.617188 L 19.90625 115.597656 C 19.894531 115.613281 19.894531 115.628906 19.90625 115.648438 L 34.339844 130.109375 C 34.359375 130.125 34.375 130.125 34.390625 130.109375 L 46.371094 118.128906 C 47.078125 117.421875 47.929688 117.066406 48.929688 117.058594 Z M 75.046875 113.65625 C 72.503906 113.664062 69.984375 113.425781 67.488281 112.9375 C 64.992188 112.449219 62.566406 111.71875 60.214844 110.746094 C 57.863281 109.777344 55.628906 108.585938 53.515625 107.175781 C 51.398438 105.761719 49.441406 104.15625 47.644531 102.355469 C 36.785156 91.496094 33.457031 75.464844 38.960938 60.523438 C 39.867188 58.050781 41.03125 55.707031 42.449219 53.488281 C 43.867188 51.273438 45.507812 49.234375 47.367188 47.371094 C 49.230469 45.511719 51.269531 43.871094 53.488281 42.453125 C 55.703125 41.035156 58.046875 39.871094 60.519531 38.964844 C 75.460938 33.457031 91.492188 36.785156 102.355469 47.644531 C 113.214844 58.507812 116.542969 74.535156 111.039062 89.480469 C 110.132812 91.953125 108.96875 94.296875 107.550781 96.511719 C 106.132812 98.730469 104.492188 100.769531 102.628906 102.632812 C 100.769531 104.492188 98.726562 106.132812 96.511719 107.550781 C 94.292969 108.96875 91.949219 110.132812 89.476562 111.039062 C 84.824219 112.769531 80.011719 113.640625 75.046875 113.65625 Z M 75.101562 43.558594 C 70.945312 43.578125 66.921875 44.316406 63.03125 45.773438 C 61.054688 46.5 59.179688 47.429688 57.402344 48.566406 C 55.628906 49.699219 53.996094 51.011719 52.507812 52.5 C 51.015625 53.988281 49.703125 55.621094 48.566406 57.394531 C 47.433594 59.167969 46.5 61.042969 45.773438 63.019531 C 41.191406 75.457031 43.808594 88.238281 52.78125 97.207031 C 54.222656 98.671875 55.796875 99.980469 57.503906 101.132812 C 59.207031 102.28125 61.011719 103.253906 62.910156 104.046875 C 64.808594 104.835938 66.765625 105.433594 68.785156 105.832031 C 70.804688 106.234375 72.839844 106.433594 74.898438 106.425781 C 79.054688 106.40625 83.078125 105.671875 86.96875 104.210938 C 88.945312 103.488281 90.820312 102.558594 92.59375 101.425781 C 94.371094 100.289062 96 98.980469 97.492188 97.492188 C 98.980469 96.003906 100.292969 94.375 101.429688 92.601562 C 102.566406 90.828125 103.5 88.953125 104.226562 86.980469 C 108.808594 74.542969 106.191406 61.761719 97.21875 52.789062 C 95.777344 51.324219 94.203125 50.015625 92.496094 48.863281 C 90.792969 47.710938 88.992188 46.738281 87.089844 45.945312 C 85.191406 45.152344 83.234375 44.554688 81.214844 44.152344 C 79.199219 43.753906 77.160156 43.554688 75.101562 43.558594 Z M 75.101562 43.558594 " fill-opacity="1" fill-rule="nonzero"/></svg>